<svg width="18" height="18" viewBox="0 0 18 18" fill="none" xmlns="http://www.w3.org/2000/svg">
<path d="M4.83331 10.6667C4.46955 10.6672 4.11029 10.7471 3.7806 10.9008C3.45091 11.0546 3.15874 11.2784 2.92447 11.5567C2.69021 11.835 2.5195 12.161 2.42425 12.5121C2.32901 12.8632 2.31152 13.2308 2.37302 13.5893C2.43452 13.9478 2.57351 14.2886 2.78031 14.5879C2.9871 14.8872 3.25672 15.1377 3.57033 15.322C3.88394 15.5063 4.234 15.62 4.59607 15.655C4.95814 15.6901 5.32349 15.6457 5.66665 15.525" stroke="#FFB21E" stroke-width="1.25" stroke-linecap="round" stroke-linejoin="round"/>
<path d="M2.5533 12.0042C2.0546 11.7641 1.62354 11.4036 1.29901 10.9552C0.974483 10.5069 0.766707 9.98477 0.694434 9.43603C0.622162 8.88729 0.687668 8.32918 0.885041 7.81209C1.08241 7.295 1.40544 6.83519 1.82497 6.47417M1.84997 6.40667C1.57667 5.99771 1.45689 5.50524 1.51182 5.01644C1.56675 4.52765 1.79286 4.07405 2.15012 3.73596C2.50737 3.39786 2.97273 3.19707 3.46381 3.16914C3.95489 3.14121 4.44001 3.28793 4.8333 3.58333M5.03164 3.6375C4.8987 3.35504 4.83094 3.04631 4.83337 2.73414C4.83579 2.42196 4.90835 2.11433 5.04566 1.83397C5.18298 1.55361 5.38155 1.30769 5.62669 1.11439C5.87183 0.921099 6.15728 0.785367 6.46194 0.717232C6.7666 0.649097 7.08267 0.650301 7.3868 0.720754C7.69093 0.791207 7.97533 0.929108 8.219 1.12426C8.46266 1.31942 8.65935 1.56684 8.79453 1.84824C8.92971 2.12964 8.99992 2.43782 8.99997 2.75V15.6667C8.99997 16.1087 8.82437 16.5326 8.51181 16.8452C8.19925 17.1577 7.77533 17.3333 7.3333 17.3333C6.89127 17.3333 6.46735 17.1577 6.15479 16.8452C5.84223 16.5326 5.66664 16.1087 5.66664 15.6667M8.99997 4.83333C8.99997 5.49638 9.26336 6.13226 9.7322 6.6011C10.201 7.06994 10.8369 7.33333 11.5 7.33333M13.1666 10.6667C13.5304 10.6672 13.8897 10.7471 14.2193 10.9008C14.549 11.0546 14.8412 11.2784 15.0755 11.5567C15.3097 11.8349 15.4804 12.161 15.5757 12.5121C15.6709 12.8632 15.6884 13.2308 15.6269 13.5893C15.5654 13.9478 15.4264 14.2886 15.2196 14.5879C15.0128 14.8872 14.7432 15.1377 14.4296 15.322C14.116 15.5063 13.7659 15.62 13.4039 15.655C13.0418 15.6901 12.6765 15.6457 12.3333 15.525" stroke="#FFB21E" stroke-width="1.25" stroke-linecap="round" stroke-linejoin="round"/>
<path d="M15.4467 12.0042C15.9454 11.7641 16.3764 11.4036 16.701 10.9552C17.0255 10.5069 17.2333 9.98477 17.3055 9.43603C17.3778 8.88729 17.3123 8.32918 17.1149 7.81209C16.9176 7.295 16.5945 6.83519 16.175 6.47417M16.15 6.40667C16.4233 5.99771 16.5431 5.50524 16.4881 5.01644C16.4332 4.52765 16.2071 4.07405 15.8499 3.73596C15.4926 3.39786 15.0272 3.19707 14.5362 3.16914C14.0451 3.14121 13.56 3.28793 13.1667 3.58333M9 2.75C9.00005 2.43782 9.07026 2.12964 9.20544 1.84824C9.34062 1.56684 9.53731 1.31942 9.78097 1.12426C10.0246 0.929108 10.309 0.791207 10.6132 0.720754C10.9173 0.650301 11.2334 0.649097 11.538 0.717232C11.8427 0.785367 12.1281 0.921099 12.3733 1.11439C12.6184 1.30769 12.817 1.55361 12.9543 1.83397C13.0916 2.11433 13.1642 2.42196 13.1666 2.73414C13.169 3.04631 13.1013 3.35504 12.9683 3.6375M12.3333 15.6667C12.3333 16.1087 12.1577 16.5326 11.8452 16.8452C11.5326 17.1577 11.1087 17.3333 10.6667 17.3333C10.2246 17.3333 9.80072 17.1577 9.48816 16.8452C9.1756 16.5326 9 16.1087 9 15.6667" stroke="#FFB21E" stroke-width="1.25" stroke-linecap="round" stroke-linejoin="round"/>
</svg>
