<svg width="18" height="12" viewBox="0 0 18 12" fill="none" xmlns="http://www.w3.org/2000/svg">
<path d="M9.00004 7.66667C9.44207 7.66667 9.86599 7.49107 10.1786 7.17851C10.4911 6.86595 10.6667 6.44203 10.6667 6C10.6667 5.55798 10.4911 5.13405 10.1786 4.82149C9.86599 4.50893 9.44207 4.33334 9.00004 4.33334C8.55801 4.33334 8.13409 4.50893 7.82153 4.82149C7.50897 5.13405 7.33337 5.55798 7.33337 6C7.33337 6.44203 7.50897 6.86595 7.82153 7.17851C8.13409 7.49107 8.55801 7.66667 9.00004 7.66667Z" stroke="#1125D6" stroke-width="1.25" stroke-linecap="round" stroke-linejoin="round"/>
<path d="M16.5 6C14.9258 8.4925 12.0983 11 9 11C5.90167 11 3.07417 8.4925 1.5 6C3.41583 3.63167 5.66 1 9 1C12.34 1 14.5842 3.63167 16.5 6Z" stroke="#1125D6" stroke-width="1.25" stroke-linecap="round" stroke-linejoin="round"/>
</svg>
